<svg width="20" height="20" viewBox="0 0 20 20" fill="none" xmlns="http://www.w3.org/2000/svg">
<path d="M9.50813 0.101061C9.82063 -0.0336871 10.18 -0.0336871 10.4925 0.101061L19.2427 3.85124C19.7896 4.08601 20.0942 4.67196 19.9732 5.25009C19.856 5.83214 19.3442 6.21495 18.7153 6.25011V6.56262C18.7153 7.08216 18.3325 7.50013 17.7778 7.50013H2.15253C1.66971 7.50013 1.21502 7.08216 1.21502 6.56262V6.25011C0.656805 6.21495 0.144999 5.83214 0.0256534 5.25009C-0.0936768 4.67196 0.212227 4.08601 0.757588 3.85124L9.50813 0.101061ZM10.0003 5.00009C10.6917 5.00009 11.2503 4.44149 11.2503 3.75007C11.2503 3.05982 10.6917 2.50005 10.0003 2.50005C9.30891 2.50005 8.7503 3.05982 8.7503 3.75007C8.7503 4.44149 9.30891 5.00009 10.0003 5.00009ZM4.96508 16.2503H6.52761V8.75015H9.02765V16.2503H10.9378V8.75015H13.4379V16.2503H15.0004V8.75015H17.5005V16.4183C17.5239 16.43 17.5473 16.4104 17.5708 16.4612L19.4458 17.7112C19.9028 18.0159 20.106 18.5863 19.9458 19.1136C19.7857 19.641 19.3013 20.0003 18.7505 20.0003H1.21502C0.699384 20.0003 0.21336 19.641 0.0537476 19.1136C-0.105904 18.5863 0.0983968 18.0159 0.556803 17.7112L2.43184 16.4612C2.4541 16.4104 2.47715 16.43 2.46504 16.4183V8.75015H4.96508V16.2503Z" fill="#F9FAFA"/>
</svg>
