<svg width="16" height="16" viewBox="0 0 16 16" fill="none" xmlns="http://www.w3.org/2000/svg">
<path d="M15.5356 14.1771C15.4762 14.0688 15.3888 13.9785 15.2825 13.9155L14.521 13.4585C14.2238 13.2798 13.9779 13.0273 13.8072 12.7254C13.6365 12.4236 13.5468 12.0826 13.5468 11.7359V7.61695C13.5461 6.42213 13.1585 5.25969 12.4419 4.30362C11.7253 3.34753 10.7183 2.64924 9.57173 2.31328C9.52213 2.29916 9.47846 2.26938 9.44721 2.22838C9.41599 2.18738 9.39887 2.13737 9.39841 2.08582C9.39841 1.71911 9.25272 1.36741 8.99341 1.10811C8.7341 0.848802 8.38239 0.703125 8.01572 0.703125C7.649 0.703125 7.2973 0.848802 7.03798 1.10811C6.77867 1.36741 6.63298 1.71911 6.63298 2.08582C6.63249 2.13735 6.61534 2.18733 6.58412 2.22832C6.55286 2.26931 6.50923 2.29911 6.45966 2.31328C5.31308 2.64924 4.3061 3.34753 3.58951 4.30362C2.87292 5.25969 2.48528 6.42213 2.48456 7.61695V11.7352C2.48459 12.0819 2.3949 12.4228 2.22419 12.7247C2.05349 13.0266 1.80758 13.2791 1.51039 13.4578L0.748901 13.9148C0.617424 13.9933 0.515168 14.1126 0.457681 14.2546C0.40019 14.3965 0.39061 14.5533 0.430392 14.7012C0.470179 14.8491 0.557148 14.9799 0.678093 15.0738C0.799037 15.1678 0.947344 15.2197 1.10046 15.2216H14.9288C15.05 15.2187 15.1685 15.1848 15.2728 15.123C15.3772 15.0612 15.4638 14.9737 15.5246 14.8688C15.5855 14.7639 15.6183 14.6451 15.62 14.5239C15.6218 14.4027 15.5923 14.283 15.5346 14.1764L15.5356 14.1771Z" fill="#F9FAFA"/>
</svg>
