<svg width="24" height="24" viewBox="0 0 24 24" fill="none" xmlns="http://www.w3.org/2000/svg">
<path d="M2.71967 9.27967C2.23462 8.94777 1.82867 8.51306 1.5307 8.00646C1.23273 7.49986 1.05005 6.93383 0.995675 6.34861C0.941295 5.7634 1.01655 5.1734 1.21607 4.62057C1.4156 4.06774 1.7345 3.56568 2.15009 3.15009C2.56568 2.7345 3.06774 2.4156 3.62057 2.21607C4.1734 2.01655 4.7634 1.94129 5.34861 1.99567C5.93383 2.05005 6.49986 2.23273 7.00646 2.5307C7.51306 2.82867 7.94777 3.23462 8.27967 3.71967L2.71967 9.27967Z" fill="#E6E7EA"/>
<path d="M21.2807 9.27967C21.7658 8.94777 22.1717 8.51306 22.4697 8.00646C22.7676 7.49986 22.9503 6.93383 23.0047 6.34861C23.0591 5.7634 22.9838 5.1734 22.7843 4.62057C22.5848 4.06774 22.2659 3.56568 21.8503 3.15009C21.4347 2.7345 20.9326 2.4156 20.3798 2.21607C19.827 2.01655 19.237 1.94129 18.6518 1.99567C18.0665 2.05005 17.5005 2.23273 16.9939 2.5307C16.4873 2.82867 16.0526 3.23462 15.7207 3.71967L21.2807 9.27967Z" fill="#E6E7EA"/>
<path d="M12 5C11.7348 5 11.4804 4.89464 11.2929 4.70711C11.1054 4.51957 11 4.26522 11 4V1C11 0.734784 11.1054 0.48043 11.2929 0.292893C11.4804 0.105357 11.7348 0 12 0C12.2652 0 12.5196 0.105357 12.7071 0.292893C12.8946 0.48043 13 0.734784 13 1V4C13 4.26522 12.8946 4.51957 12.7071 4.70711C12.5196 4.89464 12.2652 5 12 5Z" fill="#FB8B85"/>
<path d="M12 23C17.5228 23 22 18.5228 22 13C22 7.47715 17.5228 3 12 3C6.47715 3 2 7.47715 2 13C2 18.5228 6.47715 23 12 23Z" fill="#F9FAFA"/>
<path d="M8.99979 17C8.80204 17 8.60874 16.9413 8.44433 16.8314C8.27992 16.7215 8.15178 16.5654 8.07611 16.3827C8.00044 16.2 7.98064 15.9989 8.0192 15.805C8.05777 15.611 8.15298 15.4329 8.29279 15.293L10.9998 12.586V7C10.9998 6.73478 11.1051 6.48043 11.2927 6.29289C11.4802 6.10536 11.7346 6 11.9998 6C12.265 6 12.5194 6.10536 12.7069 6.29289C12.8944 6.48043 12.9998 6.73478 12.9998 7V13C12.9997 13.2652 12.8943 13.5195 12.7068 13.707L9.70679 16.707C9.51929 16.8946 9.26498 16.9999 8.99979 17Z" fill="#D03531"/>
</svg>
