<svg width="20" height="19" viewBox="0 0 20 19" fill="none" xmlns="http://www.w3.org/2000/svg">
<path d="M19.4925 0.0190197C19.3347 -0.0185009 19.1687 0.00175049 19.0246 0.076103L18 0.58777L16.9667 0.0711031C16.8741 0.0248235 16.772 0.000729748 16.6685 0.000729748C16.565 0.000729748 16.463 0.0248235 16.3704 0.0711031L15.3242 0.588187L14.2917 0.0711031C14.1988 0.0244851 14.0964 0.00020785 13.9925 0.00020785C13.8886 0.00020785 13.7862 0.0244851 13.6933 0.0711031L12.6667 0.58652L11.6479 0.072353C11.5553 0.0254145 11.453 0.00074575 11.3492 0.000311721C11.2454 -0.000122308 11.143 0.0236903 11.05 0.0698529L9.99999 0.588604L8.96665 0.0706863C8.87393 0.0244289 8.77173 0.000350345 8.66811 0.000350345C8.56449 0.000350345 8.46229 0.0244289 8.36957 0.0706863L7.33332 0.58777L6.29831 0.0706863C6.16489 0.00380207 6.01287 -0.0163729 5.86662 0.013392C5.72036 0.0431569 5.58832 0.12114 5.49165 0.234853C5.38745 0.359045 5.33127 0.516502 5.33331 0.678604V10.667L5.3354 10.669H13.3333C13.6869 10.669 14.0261 10.8095 14.2761 11.0596C14.5262 11.3096 14.6667 11.6487 14.6667 12.0024V16.3336C14.6667 17.6224 16.0446 18.667 17.3333 18.667H17.8333C18.408 18.667 18.9591 18.4387 19.3654 18.0324C19.7717 17.626 20 17.0749 20 16.5003V0.666937C20.0001 0.517724 19.9502 0.372785 19.8582 0.255317C19.7662 0.137849 19.6374 0.0546443 19.4925 0.0190197ZM16.6667 8.66695H11.3542C10.9942 8.66695 10.6833 8.39028 10.6675 8.03028C10.6634 7.94031 10.6777 7.85045 10.7093 7.76613C10.7409 7.68181 10.7893 7.60477 10.8515 7.53966C10.9138 7.47455 10.9885 7.42273 11.0713 7.38732C11.1541 7.3519 11.2433 7.33363 11.3333 7.33361H16.6458C17.0058 7.33361 17.3167 7.61028 17.3325 7.97028C17.3365 8.06025 17.3223 8.15011 17.2907 8.23443C17.2591 8.31875 17.2107 8.39579 17.1485 8.4609C17.0862 8.52601 17.0115 8.57783 16.9287 8.61324C16.8458 8.64866 16.7567 8.66693 16.6667 8.66695ZM16.6667 5.33361H8.68748C8.32748 5.33361 8.01665 5.05694 8.00082 4.69694C7.99676 4.60697 8.01098 4.51712 8.04261 4.43279C8.07425 4.34847 8.12263 4.27143 8.18486 4.20632C8.24708 4.14122 8.32186 4.08939 8.40466 4.05398C8.48747 4.01856 8.57659 4.0003 8.66665 4.00027H16.6458C17.0058 4.00027 17.3167 4.27694 17.3325 4.63694C17.3365 4.72691 17.3223 4.81677 17.2907 4.90109C17.2591 4.98541 17.2107 5.06245 17.1485 5.12756C17.0862 5.19267 17.0115 5.24449 16.9287 5.27991C16.8458 5.31532 16.7567 5.33359 16.6667 5.33361Z" fill="#F9FAFA"/>
<path d="M13.3334 16.3336V12.6669C13.3334 12.4901 13.2631 12.3206 13.1381 12.1955C13.0131 12.0705 12.8435 12.0003 12.6667 12.0003H1.33334C0.979691 12.0014 0.640876 12.1425 0.391006 12.3928C0.141135 12.643 0.000549136 12.9821 0 13.3357C0 15.442 0.240834 16.3178 0.602501 16.9845C1.21625 18.1165 2.3275 18.667 4.00001 18.667H14.2367C14.2696 18.667 14.3017 18.6573 14.3291 18.6391C14.3565 18.6209 14.3779 18.595 14.3906 18.5646C14.4033 18.5343 14.4067 18.5009 14.4004 18.4686C14.3942 18.4363 14.3785 18.4066 14.3554 18.3832C13.9613 17.9878 13.3334 17.4586 13.3334 16.3336Z" fill="#F9FAFA"/>
</svg>
