<svg width="20" height="20" viewBox="0 0 20 20" fill="none" xmlns="http://www.w3.org/2000/svg">
<path fill-rule="evenodd" clip-rule="evenodd" d="M10.6074 0.394605L13.1741 5.84417C13.2685 6.05002 13.4593 6.19527 13.6828 6.23141L19.4223 7.10529C19.6818 7.15561 19.8926 7.34454 19.9709 7.59699C20.0491 7.84943 19.9823 8.12447 19.7968 8.31276L15.6436 12.5546C15.4832 12.7209 15.4112 12.9534 15.4493 13.1812L16.4297 19.1709C16.4832 19.4284 16.3841 19.6937 16.1748 19.853C15.9656 20.0123 15.6834 20.0372 15.4495 19.9171L10.3159 17.0892C10.1203 16.9808 9.88271 16.9808 9.68715 17.0892L4.55356 19.9171C4.3196 20.0372 4.03747 20.0123 3.82822 19.853C3.61898 19.6937 3.51983 19.4284 3.57331 19.1709L4.55374 13.1812C4.59189 12.9534 4.51981 12.7209 4.35944 12.5546L0.206284 8.31276C0.0208119 8.12447 -0.0460809 7.84944 0.032199 7.597C0.110479 7.34456 0.321245 7.15563 0.580708 7.10531L6.32023 6.23142C6.54377 6.19527 6.73456 6.05003 6.8289 5.84417L9.3957 0.394605C9.50171 0.154733 9.73927 0 10.0015 0C10.2638 0 10.5013 0.154733 10.6074 0.394605Z" fill="#F9FAFA"/>
</svg>
