<svg width="19" height="19" viewBox="0 0 19 19" fill="none" xmlns="http://www.w3.org/2000/svg">
<path d="M1.50074 7.50067C1.11553 7.50048 0.745149 7.3521 0.466357 7.08626C0.187566 6.82043 0.0217315 6.45753 0.00321878 6.07276C-0.0152939 5.68799 0.114934 5.31084 0.366918 5.01947C0.618902 4.7281 0.973325 4.54484 1.35674 4.50767L1.50074 4.50067L13.8797 4.50067L12.4397 3.06067C12.167 2.78889 12.0092 2.42262 11.999 2.0377C11.9888 1.65278 12.1271 1.27869 12.3851 0.992887C12.6432 0.707086 13.0013 0.531465 13.3852 0.502386C13.7692 0.473306 14.1496 0.592998 14.4477 0.836675L14.5617 0.939674L18.3907 4.76967C19.3647 5.74367 18.7307 7.38668 17.3997 7.49468L17.2597 7.50068L1.50074 7.50067ZM6.56074 18.0607C6.29837 18.3233 5.94795 18.4793 5.57723 18.4985C5.20652 18.5177 4.84185 18.3988 4.55374 18.1647L4.43974 18.0617L0.610743 14.2317C-0.363258 13.2577 0.270743 11.6147 1.60174 11.5067L1.74174 11.5007L17.5007 11.5007C17.886 11.5009 18.2563 11.6493 18.5351 11.9151C18.8139 12.1809 18.9798 12.5438 18.9983 12.9286C19.0168 13.3134 18.8865 13.6905 18.6346 13.9819C18.3826 14.2732 18.0282 14.4565 17.6447 14.4937L17.5007 14.5007L5.12174 14.5007L6.56174 15.9407C6.84264 16.2219 7.00042 16.6032 7.00042 17.0007C7.00042 17.3982 6.84164 17.7794 6.56074 18.0607Z" fill="white"/>
</svg>
