<svg width="16" height="15" viewBox="0 0 16 15" fill="none" xmlns="http://www.w3.org/2000/svg">
<path d="M3.33984 8H4.33984C4.60506 8 4.85941 8.10536 5.04695 8.29289C5.23449 8.48043 5.33984 8.73478 5.33984 9V13C5.33984 13.2652 5.23449 13.5196 5.04695 13.7071C4.85941 13.8946 4.60506 14 4.33984 14H2.33984C2.07463 14 1.82027 13.8946 1.63274 13.7071C1.4452 13.5196 1.33984 13.2652 1.33984 13V7.5C1.33984 5.77609 2.02466 4.12279 3.24365 2.90381C4.46264 1.68482 6.11594 1 7.83984 1C9.56375 1 11.2171 1.68482 12.436 2.90381C13.655 4.12279 14.3398 5.77609 14.3398 7.5V13C14.3398 13.2652 14.2345 13.5196 14.047 13.7071C13.8594 13.8946 13.6051 14 13.3398 14H11.3398C11.0746 14 10.8203 13.8946 10.6327 13.7071C10.4452 13.5196 10.3398 13.2652 10.3398 13V9C10.3398 8.73478 10.4452 8.48043 10.6327 8.29289C10.8203 8.10536 11.0746 8 11.3398 8H12.3398" stroke="white" stroke-width="2" stroke-linecap="round" stroke-linejoin="round"/>
</svg>
