<svg width="42" height="42" viewBox="0 0 42 42" fill="none" xmlns="http://www.w3.org/2000/svg">
<path d="M14.8764 20.5529C14.8764 17.4137 17.4221 14.8682 20.5632 14.8682C23.7043 14.8682 26.2514 17.4137 26.2514 20.5529C26.2514 23.6922 23.7043 26.2377 20.5632 26.2377C17.4221 26.2377 14.8764 23.6922 14.8764 20.5529ZM11.8014 20.5529C11.8014 25.3892 15.7241 29.3094 20.5632 29.3094C25.4023 29.3094 29.3249 25.3892 29.3249 20.5529C29.3249 15.7167 25.4023 11.7965 20.5632 11.7965C15.7241 11.7965 11.8014 15.7167 11.8014 20.5529ZM27.6242 11.4493C27.624 11.854 27.744 12.2497 27.9688 12.5863C28.1937 12.9229 28.5134 13.1853 28.8875 13.3404C29.2615 13.4954 29.6732 13.5361 30.0704 13.4573C30.4677 13.3785 30.8326 13.1837 31.1191 12.8977C31.4055 12.6116 31.6007 12.247 31.6799 11.8501C31.759 11.4532 31.7186 11.0417 31.5638 10.6677C31.409 10.2938 31.1467 9.97405 30.81 9.74906C30.4734 9.52407 30.0776 9.40389 29.6726 9.40373H29.6718C29.129 9.40398 28.6084 9.61955 28.2245 10.0031C27.8406 10.3866 27.6247 10.9068 27.6242 11.4493ZM13.6697 34.4336C12.0061 34.3579 11.1019 34.081 10.501 33.847C9.70431 33.5371 9.1359 33.1679 8.53828 32.5715C7.94066 31.975 7.57073 31.4075 7.26195 30.6113C7.02771 30.0111 6.7506 29.1071 6.67498 27.4445C6.59226 25.647 6.57574 25.107 6.57574 20.5531C6.57574 15.9991 6.59362 15.4607 6.67498 13.6616C6.75074 11.9991 7.02989 11.0969 7.26195 10.4948C7.57209 9.69868 7.94148 9.13061 8.53828 8.53335C9.13508 7.93609 9.70294 7.56638 10.501 7.25779C11.1016 7.02369 12.0061 6.74675 13.6697 6.67117C15.4683 6.58849 16.0085 6.57199 20.5632 6.57199C25.1178 6.57199 25.6587 6.58986 27.4588 6.67117C29.1223 6.74688 30.0251 7.02587 30.6275 7.25779C31.4241 7.56638 31.9925 7.9369 32.5901 8.53335C33.1878 9.12979 33.5563 9.69868 33.8665 10.4948C34.1007 11.0951 34.3778 11.9991 34.4534 13.6616C34.5362 15.4607 34.5527 15.9991 34.5527 20.5531C34.5527 25.107 34.5362 25.6455 34.4534 27.4445C34.3777 29.1071 34.0992 30.0108 33.8665 30.6113C33.5563 31.4075 33.1869 31.9756 32.5901 32.5715C31.9933 33.1674 31.4241 33.5371 30.6275 33.847C30.0268 34.0811 29.1223 34.3581 27.4588 34.4336C25.6602 34.5163 25.1199 34.5328 20.5632 34.5328C16.0065 34.5328 15.4677 34.5163 13.6697 34.4336ZM13.5284 3.60327C11.7119 3.68595 10.4707 3.9738 9.38666 4.39535C8.26404 4.83068 7.31369 5.41471 6.36402 6.3623C5.41435 7.3099 4.83147 8.26118 4.39589 9.38313C3.97408 10.4672 3.68606 11.707 3.60333 13.5224C3.51925 15.3406 3.5 15.9219 3.5 20.5529C3.5 25.184 3.51925 25.7653 3.60333 27.5835C3.68606 29.3991 3.97408 30.6387 4.39589 31.7228C4.83147 32.844 5.41449 33.7964 6.36402 34.7436C7.31355 35.6908 8.26404 36.274 9.38666 36.7106C10.4727 37.1321 11.7119 37.42 13.5284 37.5026C15.3487 37.5853 15.9294 37.6059 20.5632 37.6059C25.197 37.6059 25.7786 37.5867 27.598 37.5026C29.4146 37.42 30.655 37.1321 31.7397 36.7106C32.8616 36.274 33.8127 35.6912 34.7623 34.7436C35.712 33.796 36.2937 32.844 36.7305 31.7228C37.1523 30.6387 37.4417 29.3989 37.523 27.5835C37.6058 25.7639 37.625 25.184 37.625 20.5529C37.625 15.9219 37.6058 15.3406 37.523 13.5224C37.4403 11.7068 37.1523 10.4665 36.7305 9.38313C36.2937 8.26187 35.7105 7.3114 34.7623 6.3623C33.8142 5.4132 32.8616 4.83068 31.7411 4.39535C30.655 3.9738 29.4145 3.68458 27.5994 3.60327C25.78 3.5206 25.1984 3.5 20.5645 3.5C15.9307 3.5 15.3487 3.51924 13.5284 3.60327Z" fill="#D03531"/>
</svg>
