<svg width="42" height="42" viewBox="0 0 42 42" fill="none" xmlns="http://www.w3.org/2000/svg">
<path fill-rule="evenodd" clip-rule="evenodd" d="M6.02205 3.5C4.62959 3.5 3.5 4.5952 3.5 5.94447V35.1813C3.5 36.5307 4.62972 37.625 6.02205 37.625H35.1029C36.4959 37.625 37.625 36.5306 37.625 35.1809V5.94447C37.625 4.5952 36.4959 3.5 35.1029 3.5H6.02205ZM13.87 16.695V32.0582H8.7635V16.695H13.87ZM14.2066 11.9438C14.2066 13.4181 13.0982 14.5978 11.3178 14.5978L11.2843 14.5977C9.5705 14.5977 8.4625 13.418 8.4625 11.9437C8.4625 10.4359 9.60396 9.2891 11.3517 9.2891C13.0982 9.2891 14.1732 10.4359 14.2066 11.9438ZM21.8026 32.0582H16.6965C16.6965 32.0582 16.7634 18.1368 16.6968 16.6956H21.803V18.8702C22.4818 17.8235 23.6966 16.3349 26.4052 16.3349C29.7648 16.3349 32.2836 18.5307 32.2836 23.2494V32.0582H27.1777V23.8402C27.1777 21.7747 26.4382 20.366 24.591 20.366C23.18 20.366 22.3398 21.316 21.9708 22.2338C21.8359 22.5613 21.8026 23.0211 21.8026 23.4796V32.0582Z" fill="#D03531"/>
</svg>
