<svg width="23" height="23" viewBox="0 0 23 23" fill="none" xmlns="http://www.w3.org/2000/svg">
<path d="M3.08081 13.5486L9.67037 20.1381C13.0284 23.4962 18.5345 23.4372 21.966 20.0057L22.7961 19.1756C23.0301 18.9416 23.0337 18.5666 22.8042 18.3372L19.07 14.6029C18.5101 14.0431 17.593 14.0521 17.0206 14.6245L14.8863 16.7588C14.3147 17.3304 13.3971 17.3406 12.8373 16.7807L6.43864 10.3821C5.87877 9.82224 5.8886 8.90429 6.46018 8.33271L8.59449 6.1984C9.1669 5.62599 9.17631 4.70927 8.61643 4.1494L4.88138 0.414337C4.65232 0.18528 4.27776 0.189293 4.04375 0.42331L3.21371 1.25334C-0.218246 4.68449 -0.278021 10.1898 3.08081 13.5486Z" fill="#272A30"/>
</svg>
