<svg width="42" height="42" viewBox="0 0 42 42" fill="none" xmlns="http://www.w3.org/2000/svg">
<path d="M37.4732 10.3792C36.3694 10.8543 35.2089 11.1851 34.0204 11.3635C34.5761 11.2682 35.3936 10.2681 35.7191 9.86328C36.2135 9.25266 36.5903 8.55559 36.8303 7.80748C36.8303 7.75192 36.8859 7.67254 36.8303 7.63285C36.8023 7.61757 36.7709 7.60956 36.739 7.60956C36.7071 7.60956 36.6757 7.61757 36.6477 7.63285C35.3573 8.33169 33.9838 8.86505 32.5599 9.22035C32.5103 9.23551 32.4575 9.23687 32.4072 9.22428C32.3568 9.2117 32.3109 9.18564 32.2742 9.14891C32.1634 9.01693 32.044 8.89231 31.917 8.77585C31.3362 8.25551 30.6773 7.82963 29.9644 7.51379C29.002 7.11897 27.9625 6.94797 26.9244 7.01373C25.917 7.07735 24.9336 7.34753 24.0351 7.80748C23.1504 8.2924 22.3728 8.95117 21.7491 9.74422C21.0931 10.5605 20.6195 11.5077 20.3601 12.5223C20.1462 13.4874 20.1219 14.4849 20.2886 15.4592C20.2886 15.6259 20.2886 15.6497 20.1458 15.6259C14.4864 14.7924 9.84296 12.7843 6.04885 8.47422C5.88217 8.28373 5.79486 8.28373 5.65992 8.47422C4.00893 10.9825 4.81061 14.9512 6.87435 16.9117C7.15216 17.1737 7.43791 17.4277 7.73953 17.6658C6.79332 17.5986 5.87022 17.3422 5.02492 16.9117C4.86617 16.8086 4.77886 16.8641 4.77092 17.0546C4.74842 17.3187 4.74842 17.5843 4.77092 17.8484C4.93654 19.1141 5.43535 20.3131 6.21633 21.3228C6.99732 22.3325 8.03246 23.1166 9.2159 23.5951C9.50439 23.7186 9.805 23.8118 10.1128 23.8729C9.23687 24.0453 8.33847 24.0722 7.45378 23.9523C7.26328 23.9126 7.19185 24.0158 7.26328 24.1983C8.43009 27.3733 10.9621 28.3417 12.8195 28.8814C13.0735 28.9211 13.3275 28.9211 13.6132 28.9846C13.6132 28.9846 13.6132 28.9846 13.5656 29.0322C13.0179 30.0323 10.8034 30.707 9.78739 31.0563C7.93294 31.7224 5.95576 31.977 3.99305 31.8024C3.68349 31.7548 3.61206 31.7627 3.53268 31.8024C3.45331 31.8421 3.53268 31.9294 3.61999 32.0088C4.01687 32.2707 4.41374 32.5009 4.82649 32.7231C6.05524 33.3934 7.35428 33.9257 8.69996 34.3106C15.669 36.2315 23.5112 34.8186 28.742 29.6196C32.8536 25.5398 34.2982 19.9121 34.2982 14.2765C34.2982 14.0622 34.5602 13.9352 34.711 13.8241C35.7512 13.0136 36.6683 12.0564 37.4335 10.9825C37.5661 10.8224 37.634 10.6186 37.624 10.411C37.624 10.2919 37.624 10.3157 37.4732 10.3792Z" fill="#D03531"/>
</svg>
